<svg xmlns="http://www.w3.org/2000/svg" version="1.1" xmlns:xlink="http://www.w3.org/1999/xlink" xmlns:svgjs="http://svgjs.dev/svgjs" width="1500" height="1500" viewBox="0 0 1500 1500"><rect width="1500" height="1500" fill="#000000"></rect><g transform="matrix(0.6666666666666666,0,0,0.6666666666666666,249.39393939393938,438.5856950067477)"><svg viewBox="0 0 396 247" data-background-color="#ffffff" preserveAspectRatio="xMidYMid meet" height="935" width="1500" xmlns="http://www.w3.org/2000/svg" xmlns:xlink="http://www.w3.org/1999/xlink"><g id="tight-bounds" transform="matrix(1,0,0,1,0.2400000000000091,-0.09999999999999432)"><svg viewBox="0 0 395.52 247.2" height="247.2" width="395.52"><g><svg></svg></g><g><svg viewBox="0 0 395.52 247.2" height="247.2" width="395.52"><mask id="d19fab5e-b3ae-4947-8b5e-073e963627ee"><rect width="640" height="400" fill="white"></rect><g transform="matrix(1,0,0,1,39.55199999999999,94.47215265444927)"><svg viewBox="0 0 316.416 58.255694691101446" height="58.255694691101446" width="316.416"><g><svg viewBox="0 0 316.416 58.255694691101446" height="58.255694691101446" width="316.416"><g><svg viewBox="0 0 316.416 58.255694691101446" height="58.255694691101446" width="316.416"><g><svg viewBox="0 0 316.416 58.255694691101446" height="58.255694691101446" width="316.416"><g id="SvgjsG1029"><svg viewBox="0 0 316.416 58.255694691101446" height="58.255694691101446" width="316.416" id="SvgjsSvg1028"><g><svg viewBox="0 0 316.416 58.255694691101446" height="58.255694691101446" width="316.416"><g transform="matrix(1,0,0,1,0,0)"><svg width="316.416" viewBox="-2.37 -37.13 265.62 49.730000000000004" height="58.255694691101446" data-palette-color="#b81d33"><path d="M15.35-31.28L15.35 0 11.2 0 11.2-31.28 15.35-31.28ZM24.93-31.95L24.93-28.48 1.63-28.48 1.63-31.95 24.93-31.95ZM31.82-14.93L31.82-14.93 30.9-18.05 31.9-18.1Q32.7-21.2 34.65-22.99 36.6-24.78 39.82-24.78L39.82-24.78Q40.62-24.78 41.26-24.65 41.9-24.53 42.4-24.35L42.4-24.35 42.65-20.43Q42.02-20.63 41.26-20.75 40.5-20.88 39.57-20.88L39.57-20.88Q36.82-20.88 34.78-19.35 32.75-17.82 31.82-14.93ZM32.02-16.9L32.02 0 27.97 0 27.97-24.4 31.92-24.4 31.72-17.2 32.02-16.9ZM64.55-15.8L64.55 0 60.52 0 60.7-5.93 60.55-6.55 60.55-14.33 60.57-15.75Q60.57-18.73 59.06-20.15 57.55-21.58 54.27-21.58L54.27-21.58Q51.65-21.58 49.46-20.83 47.27-20.08 45.57-19.07L45.57-19.07 45.95-22.53Q46.9-23.1 48.21-23.66 49.52-24.23 51.21-24.6 52.9-24.98 54.92-24.98L54.92-24.98Q57.55-24.98 59.38-24.34 61.22-23.7 62.36-22.5 63.5-21.3 64.02-19.6 64.55-17.9 64.55-15.8L64.55-15.8ZM52.12 0.53L52.12 0.53Q48.5 0.53 46.56-1.24 44.62-3 44.62-6.28L44.62-6.28 44.62-7Q44.62-10.38 46.71-12.04 48.8-13.7 53.35-14.35L53.35-14.35 61.07-15.45 61.3-12.5 53.85-11.43Q51.05-11.03 49.85-10.06 48.65-9.1 48.65-7.23L48.65-7.23 48.65-6.83Q48.65-4.9 49.83-3.88 51.02-2.85 53.4-2.85L53.4-2.85Q55.5-2.85 57-3.58 58.5-4.3 59.42-5.53 60.35-6.75 60.67-8.25L60.67-8.25 61.3-5.5 60.52-5.5Q60.17-3.9 59.21-2.53 58.25-1.15 56.52-0.31 54.8 0.53 52.12 0.53ZM71.87-24.4L78.62-2.78 79.22-2.78 85.97-24.4 90.17-24.4 82.24 0 75.59 0 67.67-24.4 71.87-24.4ZM103.99 0.55L103.99 0.55Q98.42 0.55 95.59-2.18 92.77-4.9 92.77-9.98L92.77-9.98 92.77-14.33Q92.77-19.48 95.39-22.26 98.02-25.05 103.07-25.05L103.07-25.05Q106.47-25.05 108.74-23.79 111.02-22.53 112.17-20.2 113.32-17.88 113.32-14.65L113.32-14.65 113.32-13.75Q113.32-12.95 113.25-12.15 113.19-11.35 113.09-10.58L113.09-10.58 109.37-10.58Q109.42-11.78 109.43-12.85 109.44-13.93 109.44-14.83L109.44-14.83Q109.44-17.05 108.73-18.59 108.02-20.13 106.6-20.94 105.19-21.75 103.07-21.75L103.07-21.75Q99.92-21.75 98.34-19.93 96.77-18.1 96.77-14.7L96.77-14.7 96.77-12.38 96.79-11.88 96.79-9.55Q96.79-8.03 97.24-6.8 97.69-5.58 98.65-4.69 99.62-3.8 101.1-3.34 102.59-2.88 104.64-2.88L104.64-2.88Q107.02-2.88 109.07-3.5 111.12-4.13 112.92-5.2L112.92-5.2 112.54-1.7Q110.92-0.68 108.77-0.06 106.62 0.55 103.99 0.55ZM112.24-13.63L112.24-10.58 94.89-10.58 94.89-13.63 112.24-13.63ZM122.86-33.13L122.86 0 118.84 0 118.84-33.13 122.86-33.13ZM143.34 0L143.34 0 132.89 0 132.89-3.43 142.94-3.43Q146.19-3.43 147.55-4.81 148.91-6.2 148.91-8.65L148.91-8.65 148.91-9.55Q148.91-12.05 147.52-13.43 146.14-14.8 142.69-14.8L142.69-14.8 132.91-14.8 132.91-18.07 142.64-18.07Q145.71-18.07 147.02-19.41 148.34-20.75 148.34-23.13L148.34-23.13 148.34-23.58Q148.34-25.93 147.07-27.24 145.81-28.55 142.61-28.55L142.61-28.55 132.81-28.55 132.81-31.95 142.99-31.95Q148.09-31.95 150.29-29.93 152.49-27.9 152.49-24.23L152.49-24.23 152.49-23.73Q152.49-20.8 151.09-19.13 149.69-17.45 146.74-17.13L146.74-17.13 146.71-16.98Q150.09-16.48 151.61-14.63 153.14-12.78 153.14-9.47L153.14-9.47 153.14-8.45Q153.14-4.48 150.84-2.24 148.54 0 143.34 0ZM134.16-31.95L134.16 0 130.06 0 130.06-31.95 134.16-31.95ZM158.28-8.78L158.28-24.4 162.31-24.4 162.31-9.22Q162.31-7.3 162.85-5.86 163.38-4.42 164.61-3.64 165.83-2.85 167.91-2.85L167.91-2.85Q169.86-2.85 171.26-3.56 172.66-4.28 173.55-5.53 174.43-6.78 174.76-8.35L174.76-8.35 175.48-5.48 174.61-5.48Q174.23-3.83 173.23-2.46 172.23-1.1 170.55-0.29 168.86 0.53 166.38 0.53L166.38 0.53Q163.51 0.53 161.72-0.56 159.93-1.65 159.11-3.74 158.28-5.83 158.28-8.78L158.28-8.78ZM174.58-6.1L174.58-24.4 178.63-24.4 178.63 0 174.58 0 174.76-5.85 174.58-6.1ZM193.28 0.53L193.28 0.53Q188.88 0.53 186.58-2.2 184.28-4.93 184.28-10.15L184.28-10.15 184.28-14.18Q184.28-19.43 186.61-22.19 188.93-24.95 193.46-24.95L193.46-24.95Q195.71-24.95 197.36-24.19 199.01-23.43 200.03-22.05 201.06-20.68 201.41-18.8L201.41-18.8 202.73-18.8 201.53-15.08Q201.46-17.23 200.57-18.69 199.68-20.15 198.17-20.9 196.66-21.65 194.71-21.65L194.71-21.65Q191.61-21.65 189.97-19.85 188.33-18.05 188.33-14.55L188.33-14.55 188.33-9.9Q188.33-6.45 189.97-4.65 191.61-2.85 194.71-2.85L194.71-2.85Q196.56-2.85 197.98-3.56 199.41-4.28 200.34-5.54 201.28-6.8 201.63-8.4L201.63-8.4 202.63-5.5 201.43-5.5Q201.08-3.85 200.09-2.48 199.11-1.1 197.44-0.29 195.78 0.53 193.28 0.53ZM205.48-33.13L205.48 0 201.43 0 201.61-5.9 201.53-7.2 201.53-17.4 201.56-18.25 201.46-25.18 201.46-33.13 205.48-33.13ZM220.13 0.53L220.13 0.53Q215.73 0.53 213.43-2.2 211.13-4.93 211.13-10.15L211.13-10.15 211.13-14.18Q211.13-19.43 213.45-22.19 215.78-24.95 220.3-24.95L220.3-24.95Q222.55-24.95 224.2-24.19 225.85-23.43 226.88-22.05 227.9-20.68 228.25-18.8L228.25-18.8 229.58-18.8 228.38-15.08Q228.3-17.23 227.42-18.69 226.53-20.15 225.02-20.9 223.5-21.65 221.55-21.65L221.55-21.65Q218.45-21.65 216.82-19.85 215.18-18.05 215.18-14.55L215.18-14.55 215.18-9.9Q215.18-6.45 216.82-4.65 218.45-2.85 221.55-2.85L221.55-2.85Q223.4-2.85 224.83-3.56 226.25-4.28 227.19-5.54 228.13-6.8 228.48-8.4L228.48-8.4 229.48-5.5 228.28-5.5Q227.93-3.85 226.94-2.48 225.95-1.1 224.29-0.29 222.63 0.53 220.13 0.53ZM232.33-33.13L232.33 0 228.28 0 228.45-5.9 228.38-7.2 228.38-17.4 228.4-18.25 228.3-25.18 228.3-33.13 232.33-33.13ZM240.93-24.4L247.58-3.78 249.9-3.78 247.78-2.85 255.08-24.4 259.25-24.4 247.78 8.6 243.68 8.6 247.53-2.55 249.3-1 244.7-1 236.73-24.4 240.93-24.4Z" opacity="1" transform="matrix(1,0,0,1,0,0)" fill="black" class="wordmark-text-0" id="SvgjsPath1027" stroke-width="7" stroke="black" stroke-linejoin="round"></path></svg></g></svg></g></svg></g></svg></g></svg></g></svg></g></svg></g></mask><g transform="matrix(1,0,0,1,39.55199999999999,94.47215265444927)"><svg viewBox="0 0 316.416 58.255694691101446" height="58.255694691101446" width="316.416"><g><svg viewBox="0 0 316.416 58.255694691101446" height="58.255694691101446" width="316.416"><g><svg viewBox="0 0 316.416 58.255694691101446" height="58.255694691101446" width="316.416"><g><svg viewBox="0 0 316.416 58.255694691101446" height="58.255694691101446" width="316.416"><g id="textblocktransform"><svg viewBox="0 0 316.416 58.255694691101446" height="58.255694691101446" width="316.416" id="textblock"><g><svg viewBox="0 0 316.416 58.255694691101446" height="58.255694691101446" width="316.416"><g transform="matrix(1,0,0,1,0,0)"><svg width="316.416" viewBox="-2.37 -37.13 265.62 49.730000000000004" height="58.255694691101446" data-palette-color="#b81d33"><path d="M15.35-31.28L15.35 0 11.2 0 11.2-31.28 15.35-31.28ZM24.93-31.95L24.93-28.48 1.63-28.48 1.63-31.95 24.93-31.95ZM31.82-14.93L31.82-14.93 30.9-18.05 31.9-18.1Q32.7-21.2 34.65-22.99 36.6-24.78 39.82-24.78L39.82-24.78Q40.62-24.78 41.26-24.65 41.9-24.53 42.4-24.35L42.4-24.35 42.65-20.43Q42.02-20.63 41.26-20.75 40.5-20.88 39.57-20.88L39.57-20.88Q36.82-20.88 34.78-19.35 32.75-17.82 31.82-14.93ZM32.02-16.9L32.02 0 27.97 0 27.97-24.4 31.92-24.4 31.72-17.2 32.02-16.9ZM64.55-15.8L64.55 0 60.52 0 60.7-5.93 60.55-6.55 60.55-14.33 60.57-15.75Q60.57-18.73 59.06-20.15 57.55-21.58 54.27-21.58L54.27-21.58Q51.65-21.58 49.46-20.83 47.27-20.08 45.57-19.07L45.57-19.07 45.95-22.53Q46.9-23.1 48.21-23.66 49.52-24.23 51.21-24.6 52.9-24.98 54.92-24.98L54.92-24.98Q57.55-24.98 59.38-24.34 61.22-23.7 62.36-22.5 63.5-21.3 64.02-19.6 64.55-17.9 64.55-15.8L64.55-15.8ZM52.12 0.53L52.12 0.53Q48.5 0.53 46.56-1.24 44.62-3 44.62-6.28L44.62-6.28 44.62-7Q44.62-10.38 46.71-12.04 48.8-13.7 53.35-14.35L53.35-14.35 61.07-15.45 61.3-12.5 53.85-11.43Q51.05-11.03 49.85-10.06 48.65-9.1 48.65-7.23L48.65-7.23 48.65-6.83Q48.65-4.9 49.83-3.88 51.02-2.85 53.4-2.85L53.4-2.85Q55.5-2.85 57-3.58 58.5-4.3 59.42-5.53 60.35-6.75 60.67-8.25L60.67-8.25 61.3-5.5 60.52-5.5Q60.17-3.9 59.21-2.53 58.25-1.15 56.52-0.31 54.8 0.53 52.12 0.53ZM71.87-24.4L78.62-2.78 79.22-2.78 85.97-24.4 90.17-24.4 82.24 0 75.59 0 67.67-24.4 71.87-24.4ZM103.99 0.55L103.99 0.55Q98.42 0.55 95.59-2.18 92.77-4.9 92.77-9.98L92.77-9.98 92.77-14.33Q92.77-19.48 95.39-22.26 98.02-25.05 103.07-25.05L103.07-25.05Q106.47-25.05 108.74-23.79 111.02-22.53 112.17-20.2 113.32-17.88 113.32-14.65L113.32-14.65 113.32-13.75Q113.32-12.95 113.25-12.15 113.19-11.35 113.09-10.58L113.09-10.58 109.37-10.58Q109.42-11.78 109.43-12.85 109.44-13.93 109.44-14.83L109.44-14.83Q109.44-17.05 108.73-18.59 108.02-20.13 106.6-20.94 105.19-21.75 103.07-21.75L103.07-21.75Q99.92-21.75 98.34-19.93 96.77-18.1 96.77-14.7L96.77-14.7 96.77-12.38 96.79-11.88 96.79-9.55Q96.79-8.03 97.24-6.8 97.69-5.58 98.65-4.69 99.62-3.8 101.1-3.34 102.59-2.88 104.64-2.88L104.64-2.88Q107.02-2.88 109.07-3.5 111.12-4.13 112.92-5.2L112.92-5.2 112.54-1.7Q110.92-0.68 108.77-0.06 106.62 0.55 103.99 0.55ZM112.24-13.63L112.24-10.58 94.89-10.58 94.89-13.63 112.24-13.63ZM122.86-33.13L122.86 0 118.84 0 118.84-33.13 122.86-33.13ZM143.34 0L143.34 0 132.89 0 132.89-3.43 142.94-3.43Q146.19-3.43 147.55-4.81 148.91-6.2 148.91-8.65L148.91-8.65 148.91-9.55Q148.91-12.05 147.52-13.43 146.14-14.8 142.69-14.8L142.69-14.8 132.91-14.8 132.91-18.07 142.64-18.07Q145.71-18.07 147.02-19.41 148.34-20.75 148.34-23.13L148.34-23.13 148.34-23.58Q148.34-25.93 147.07-27.24 145.81-28.55 142.61-28.55L142.61-28.55 132.81-28.55 132.81-31.95 142.99-31.95Q148.09-31.95 150.29-29.93 152.49-27.9 152.49-24.23L152.49-24.23 152.49-23.73Q152.49-20.8 151.09-19.13 149.69-17.45 146.74-17.13L146.74-17.13 146.71-16.98Q150.09-16.48 151.61-14.63 153.14-12.78 153.14-9.47L153.14-9.47 153.14-8.45Q153.14-4.48 150.84-2.24 148.54 0 143.34 0ZM134.16-31.95L134.16 0 130.06 0 130.06-31.95 134.16-31.95ZM158.28-8.78L158.28-24.4 162.31-24.4 162.31-9.22Q162.31-7.3 162.85-5.86 163.38-4.42 164.61-3.64 165.83-2.85 167.91-2.85L167.91-2.85Q169.86-2.85 171.26-3.56 172.66-4.28 173.55-5.53 174.43-6.78 174.76-8.35L174.76-8.35 175.48-5.48 174.61-5.48Q174.23-3.83 173.23-2.46 172.23-1.1 170.55-0.29 168.86 0.53 166.38 0.53L166.38 0.53Q163.51 0.53 161.72-0.56 159.93-1.65 159.11-3.74 158.28-5.83 158.28-8.78L158.28-8.78ZM174.58-6.1L174.58-24.4 178.63-24.4 178.63 0 174.58 0 174.76-5.85 174.58-6.1ZM193.28 0.53L193.28 0.53Q188.88 0.53 186.58-2.2 184.28-4.93 184.28-10.15L184.28-10.15 184.28-14.18Q184.28-19.43 186.61-22.19 188.93-24.95 193.46-24.95L193.46-24.95Q195.71-24.95 197.36-24.19 199.01-23.43 200.03-22.05 201.06-20.68 201.41-18.8L201.41-18.8 202.73-18.8 201.53-15.08Q201.46-17.23 200.57-18.69 199.68-20.15 198.17-20.9 196.66-21.65 194.71-21.65L194.71-21.65Q191.61-21.65 189.97-19.85 188.33-18.05 188.33-14.55L188.33-14.55 188.33-9.9Q188.33-6.45 189.97-4.65 191.61-2.85 194.71-2.85L194.71-2.85Q196.56-2.85 197.98-3.56 199.41-4.28 200.34-5.54 201.28-6.8 201.63-8.4L201.63-8.4 202.63-5.5 201.43-5.5Q201.08-3.85 200.09-2.48 199.11-1.1 197.44-0.29 195.78 0.53 193.28 0.53ZM205.48-33.13L205.48 0 201.43 0 201.61-5.9 201.53-7.2 201.53-17.4 201.56-18.25 201.46-25.18 201.46-33.13 205.48-33.13ZM220.13 0.53L220.13 0.53Q215.73 0.53 213.43-2.2 211.13-4.93 211.13-10.15L211.13-10.15 211.13-14.18Q211.13-19.43 213.45-22.19 215.78-24.95 220.3-24.95L220.3-24.95Q222.55-24.95 224.2-24.19 225.85-23.43 226.88-22.05 227.9-20.68 228.25-18.8L228.25-18.8 229.58-18.8 228.38-15.08Q228.3-17.23 227.42-18.69 226.53-20.15 225.02-20.9 223.5-21.65 221.55-21.65L221.55-21.65Q218.45-21.65 216.82-19.85 215.18-18.05 215.18-14.55L215.18-14.55 215.18-9.9Q215.18-6.45 216.82-4.65 218.45-2.85 221.55-2.85L221.55-2.85Q223.4-2.85 224.83-3.56 226.25-4.28 227.19-5.54 228.13-6.8 228.48-8.4L228.48-8.4 229.48-5.5 228.28-5.5Q227.93-3.85 226.94-2.48 225.95-1.1 224.29-0.29 222.63 0.53 220.13 0.53ZM232.33-33.13L232.33 0 228.28 0 228.45-5.9 228.38-7.2 228.38-17.4 228.4-18.25 228.3-25.18 228.3-33.13 232.33-33.13ZM240.93-24.4L247.58-3.78 249.9-3.78 247.78-2.85 255.08-24.4 259.25-24.4 247.78 8.6 243.68 8.6 247.53-2.55 249.3-1 244.7-1 236.73-24.4 240.93-24.4Z" opacity="1" transform="matrix(1,0,0,1,0,0)" fill="#ffffff" class="wordmark-text-0" data-fill-palette-color="primary" id="text-0"></path></svg></g></svg></g></svg></g></svg></g></svg></g></svg></g></svg></g><g mask="url(#d19fab5e-b3ae-4947-8b5e-073e963627ee)"><g transform="matrix(5.1732605864803105, 0, 0, 5.1732605864803105, 98.4778749707468, 1)"><svg xmlns="http://www.w3.org/2000/svg" xmlns:xlink="http://www.w3.org/1999/xlink" version="1.1" x="0" y="0" viewBox="4.936094674556212 0.3554879011270383 38.382804565737516 47.39757371604293" enable-background="new 0 0 48 48" xml:space="preserve" height="47.39757371604293" width="38.382804565737516" class="icon-none" data-fill-palette-color="accent" id="none"><g fill="#fe6e63" data-fill-palette-color="accent"><g fill="#fe6e63" data-fill-palette-color="accent"><g fill="#fe6e63" data-fill-palette-color="accent"><path fill="#ffffff" d="M23.7 8.7C21.9 8.8 20.1 7.5 19.8 5.7 19.5 3.5 20.8 2 22.9 1.7 23.7 1.6 24.6 1.6 25.4 2 26.4 2.5 26.6 4.1 26.7 5.1 26.8 7.2 25.4 8.4 23.5 8.7 22.7 8.9 23 10.1 23.8 9.9 26.6 9.4 28 7.3 27.9 4.5 27.7 1.3 25.4 0.1 22.5 0.4 19.8 0.7 18.5 3 18.6 5.6 18.7 8.1 21.3 9.9 23.7 9.9 24.5 10 24.5 8.7 23.7 8.7" data-fill-palette-color="accent"></path></g></g><g fill="#fe6e63" data-fill-palette-color="accent"><g fill="#fe6e63" data-fill-palette-color="accent"><path fill="#ffffff" d="M16.5 20.7C15 22.7 12.7 23.8 11.3 26 10.9 26.7 12 27.3 12.4 26.6 13.7 24.6 15.9 23.5 17.4 21.6 17.9 21 17 20.1 16.5 20.7" data-fill-palette-color="accent"></path></g></g><g fill="#fe6e63" data-fill-palette-color="accent"><g fill="#fe6e63" data-fill-palette-color="accent"><path fill="#ffffff" d="M11.5 25.9C8.9 24.8 8.3 23.5 9.7 22.1 10.4 21.1 11.1 20.1 11.9 19.2 13 18 14.5 17.3 15.7 16.3 19.5 13.1 23.1 13.4 27.9 13.3 28.7 13.3 28.7 12 27.9 12 25.4 12 19.9 11 17.9 12.8 15.1 15.2 11.6 17.3 9.4 20.3 8.5 21.7 6 24.4 7.5 26 8.8 27.5 10.4 27.8 12.2 27 12.9 26.7 12.2 25.6 11.5 25.9" data-fill-palette-color="accent"></path></g></g><g fill="#fe6e63" data-fill-palette-color="accent"><g fill="#fe6e63" data-fill-palette-color="accent"><path fill="#ffffff" d="M27.8 13.2C30.9 15.2 33.1 18 35.4 20.8 36 21.6 36.6 22.3 37.1 23.2 37.3 23.7 37.6 24.2 37.8 24.7 37.4 26.5 36.5 27 34.9 26.1 33.5 24.9 32.3 22.7 31.1 21.2 30.6 20.6 29.5 21.2 30 21.8 31.5 23.8 33 26.9 35.5 27.8 36.4 28.2 38.7 27.2 38.9 26.2 39.5 23.8 37.6 21.7 36.2 20 33.9 17.1 31.5 14.3 28.3 12.2 27.7 11.7 27.1 12.8 27.8 13.2" data-fill-palette-color="accent"></path></g></g><g fill="#fe6e63" data-fill-palette-color="accent"><g fill="#fe6e63" data-fill-palette-color="accent"><path fill="#ffffff" d="M29.7 21.6C30.3 26.1 30 30.7 30 35.3 30 37.8 29.9 40.3 29.9 42.9 29.8 47.1 25.3 45.2 25.4 41.8 25.4 38.4 26.2 34 25.4 30.6 25.1 29.3 21.9 30.2 21.2 30.2 18.4 30.5 20.8 43.4 21 45.5 20.1 45.5 19.2 45.3 18.2 45.1 17.2 44.2 16.9 43.1 17.3 41.8 17.4 39.4 17.5 37 17.5 34.5 17.6 30.2 18 25.8 17.4 21.5 17.3 20.7 16.1 21 16.2 21.8 17.3 29.4 16.1 37.7 15.9 45.4 15.9 45.7 16.1 46 16.4 46 22 46.9 22.4 47.7 21.9 41.9 21.7 39.6 21.6 37.2 21.5 34.9 21.3 31.1 24.2 30.2 24.1 34.5 24.1 38 23.4 42.2 24.1 45.7 24.4 47 30.2 47.3 30.7 46 31.9 42.9 31.1 38.5 31.2 35.2 31.3 30.6 31.5 26.1 30.9 21.5 30.8 20.8 29.6 20.8 29.7 21.6" data-fill-palette-color="accent"></path></g></g><g fill="#fe6e63" data-fill-palette-color="accent"><g fill="#fe6e63" data-fill-palette-color="accent"><path fill="#ffffff" d="M5.2 30.3C5 33.4 4.9 36.6 5 39.7 5 41.9 4.7 44.9 5.4 46.9 6 48.7 12.6 47.2 13.8 46.5 14.7 46 14.2 43.5 14.3 42.9 14.3 39.4 14.1 35.9 13.8 32.4 13.7 31.7 14 29.4 13 28.8 11.6 28 7.7 29.1 6.1 29.2 5.3 29.3 5.3 30.5 6.1 30.5 7.8 30.3 9.4 30.2 11.1 30 12.3 29.5 12.7 29.8 12.4 31 12.5 31.9 12.6 32.7 12.6 33.6 12.9 37.1 13 40.6 13 44.1 13 46.6 8.9 46.1 7.3 46.1 5.8 46.1 6.2 41.7 6.2 40.9 6.1 37.3 6.2 33.7 6.4 30.1 6.5 29.5 5.2 29.5 5.2 30.3" data-fill-palette-color="accent"></path></g></g><g fill="#fe6e63" data-fill-palette-color="accent"><g fill="#fe6e63" data-fill-palette-color="accent"><path fill="#ffffff" d="M9.9 29.4C9.9 28.6 10 27.8 10 27 10.1 26.2 8.8 26.2 8.7 27S8.6 28.6 8.5 29.4C8.6 30.2 9.8 30.2 9.9 29.4" data-fill-palette-color="accent"></path></g></g><g fill="#fe6e63" data-fill-palette-color="accent"><g fill="#fe6e63" data-fill-palette-color="accent"><path fill="#ffffff" d="M33.8 30.7H38.7C41.6 30.7 41.1 33.2 41.3 35.5 41.4 36.8 42.8 46.2 41 46.2H36.5C35 46.2 35.5 40.6 35.5 39.7 35.4 36.8 35.7 33.2 34.7 30.4 34.4 29.6 33.2 30 33.5 30.7 34.4 33.4 34.2 36.9 34.3 39.7 34.4 42 33.9 44.7 34.4 46.9 34.5 47.1 34.6 47.3 34.8 47.3 36.8 47.8 40.5 47.8 42.5 47.3 44 46.9 43 41.4 42.9 40.3 42.8 38.3 42.6 36.2 42.4 34.2 42.3 33 42.5 30.9 41.9 29.8 41.1 28.5 35.2 29.4 33.8 29.4 33 29.4 33 30.7 33.8 30.7" data-fill-palette-color="accent"></path></g></g><g fill="#fe6e63" data-fill-palette-color="accent"><g fill="#fe6e63" data-fill-palette-color="accent"><path fill="#ffffff" d="M36.3 27.3C36.4 28.1 36.5 28.9 36.6 29.8 36.7 30.6 37.9 30.6 37.9 29.8 37.8 29 37.7 28.2 37.6 27.3 37.4 26.5 36.2 26.5 36.3 27.3" data-fill-palette-color="accent"></path></g></g></g></svg></g></g></svg></g><defs></defs></svg><rect width="395.52" height="247.2" fill="none" stroke="none" visibility="hidden"></rect></g></svg></g></svg>